<?xml version="1.0" encoding="UTF-8"?>
<svg id="Layer_1" data-name="Layer 1" xmlns="http://www.w3.org/2000/svg" viewBox="0 0 90 90">
  <defs>
    <style>
      .cls-1 {
        fill: #3b82f6;
      }
    </style>
  </defs>
  <path class="cls-1" d="M45,0C20.15,0,0,20.15,0,45s20.15,45,45,45,45-20.15,45-45S69.85,0,45,0ZM26.51,30.29c-1.65-.01-2.78.34-3.37,1.06-.59.72-.89,1.88-.89,3.47v5.18c0,.73-.11,1.41-.32,2.05s-.62,1.2-1.21,1.69c-.59.49-1.43.87-2.51,1.14-.05.01-.12.02-.18.04v.23c.06.01.12.02.18.04,1.08.28,1.92.66,2.51,1.15.59.49,1,1.05,1.21,1.7s.32,1.33.32,2.06v5.14c0,1.58.3,2.73.89,3.46.59.73,1.72,1.09,3.37,1.09v3.4c-1.41,0-2.63-.13-3.66-.39s-1.89-.69-2.57-1.28c-.68-.59-1.18-1.39-1.51-2.38s-.5-2.22-.5-3.68v-4.1c0-1.52-.32-2.62-.95-3.28-.58-.61-1.6-.93-3-.98h-.35v-4.12h.35c1.4-.05,2.42-.36,3-.97.63-.66.95-1.74.95-3.25v-4.16c0-1.45.17-2.66.5-3.65s.84-1.78,1.51-2.38c.68-.6,1.53-1.03,2.57-1.3s2.26-.4,3.66-.4v3.44ZM34.36,57.16c-.55.55-1.23.83-2.02.83s-1.47-.28-2.03-.83c-.56-.55-.84-1.23-.84-2.02s.28-1.47.84-2.02c.56-.55,1.24-.83,2.03-.83s1.47.28,2.02.83c.55.55.83,1.23.83,2.02s-.28,1.47-.83,2.02ZM45.83,57.16c-.55.55-1.23.83-2.02.83s-1.47-.28-2.03-.83c-.56-.55-.84-1.23-.84-2.02s.28-1.47.84-2.02c.56-.55,1.24-.83,2.03-.83s1.47.28,2.02.83c.55.55.83,1.23.83,2.02s-.28,1.47-.83,2.02ZM57.29,57.16c-.55.55-1.23.83-2.02.83s-1.47-.28-2.03-.83c-.56-.55-.84-1.23-.84-2.02s.28-1.47.84-2.02c.56-.55,1.24-.83,2.03-.83s1.47.28,2.02.83c.55.55.83,1.23.83,2.02s-.28,1.47-.83,2.02ZM73.62,44.77v2.3c-1.62.01-2.73.35-3.36,1.01s-.94,1.75-.94,3.27v4.1c0,1.46-.17,2.69-.5,3.68s-.84,1.79-1.51,2.38c-.68.59-1.53,1.02-2.57,1.28s-2.26.39-3.66.39v-3.4c1.67,0,2.79-.36,3.38-1.09s.88-1.88.88-3.46v-5.14c0-.73.11-1.42.33-2.06.22-.64.62-1.21,1.21-1.7s1.42-.87,2.5-1.15c.05-.01.11-.02.16-.03v-.24s-.11-.02-.16-.03c-1.08-.27-1.91-.65-2.5-1.14s-.99-1.05-1.21-1.69c-.22-.64-.33-1.32-.33-2.05v-5.18c0-1.58-.29-2.72-.88-3.45s-1.71-1.08-3.38-1.08v-3.44c1.41,0,2.63.13,3.66.4s1.89.7,2.57,1.3c.68.6,1.18,1.39,1.51,2.38s.5,2.21.5,3.65v4.16c0,1.51.31,2.59.95,3.25.63.66,1.75.99,3.35.99v1.78Z"/>
</svg>